<svg width="194" height="51" viewBox="0 0 194 51" fill="none" xmlns="http://www.w3.org/2000/svg">
<path d="M22.8365 44.3251C21.27 45.8916 18.73 45.8916 17.1635 44.3251L1.1749 28.3363C-0.391645 26.7697 -0.391631 24.2299 1.17493 22.6633L17.1635 6.67489C18.7301 5.10837 21.2699 5.10837 22.8365 6.6749L38.8251 22.6633C40.3916 24.2299 40.3916 26.7697 38.8251 28.3363L22.8365 44.3251Z" fill="#0492D2"/>
<path d="M33.2289 25.4999C33.2289 32.8358 27.2835 38.7812 19.9478 38.7812C12.6132 38.7812 6.66663 32.8358 6.66663 25.4999C6.66663 18.1647 12.6132 12.2187 19.9478 12.2187C27.2835 12.2187 33.2289 18.1647 33.2289 25.4999" fill="white"/>
<path d="M31.9062 25.5C31.9062 32.1026 26.5555 37.4521 19.9531 37.4521C13.3519 37.4521 8 32.1026 8 25.5C8 18.898 13.3519 13.5461 19.9531 13.5461C26.5555 13.5461 31.9062 18.898 31.9062 25.5Z" fill="#0492D2"/>
<path d="M12.808 32.2251C12.6166 32.2251 12.4414 32.2023 12.2826 32.1567C12.125 32.1112 11.9877 32.0409 11.8705 31.9458C11.7546 31.8507 11.6648 31.731 11.601 31.5864C11.5372 31.4419 11.5052 31.2726 11.5052 31.0786C11.5052 30.8742 11.5391 30.6978 11.6068 30.5493C11.6758 30.4009 11.7715 30.2778 11.8939 30.1802C12.0124 30.0877 12.1491 30.02 12.3041 29.9771C12.459 29.9341 12.6198 29.9126 12.7865 29.9126C12.9362 29.9126 13.0743 29.9289 13.2006 29.9614C13.3269 29.994 13.4447 30.0363 13.5541 30.0884V30.688H13.4545C13.4271 30.6646 13.3939 30.6372 13.3549 30.606C13.3171 30.5747 13.2702 30.5441 13.2142 30.5142C13.1608 30.4855 13.1023 30.4621 13.0385 30.4438C12.9747 30.4243 12.9004 30.4146 12.8158 30.4146C12.6283 30.4146 12.4838 30.4744 12.3822 30.5942C12.2819 30.7127 12.2318 30.8742 12.2318 31.0786C12.2318 31.2896 12.2832 31.4497 12.3861 31.5591C12.4903 31.6685 12.6374 31.7231 12.8275 31.7231C12.9161 31.7231 12.9955 31.7134 13.0658 31.6938C13.1374 31.673 13.1967 31.6489 13.2435 31.6216C13.2878 31.5955 13.3269 31.5682 13.3607 31.5396C13.3946 31.5109 13.4258 31.4829 13.4545 31.4556H13.5541V32.0552C13.4434 32.1073 13.3275 32.1483 13.2064 32.1782C13.0866 32.2095 12.9538 32.2251 12.808 32.2251Z" fill="white"/>
<path d="M16.224 32.1665H15.517V31.0786C15.517 30.9901 15.5124 30.9022 15.5033 30.8149C15.4942 30.7264 15.4786 30.6613 15.4564 30.6196C15.4304 30.5715 15.392 30.5363 15.3412 30.5142C15.2917 30.492 15.222 30.481 15.1322 30.481C15.0684 30.481 15.0033 30.4914 14.9369 30.5122C14.8718 30.533 14.8008 30.5662 14.724 30.6118V32.1665H14.0209V29.1274H14.724V30.2153C14.849 30.1177 14.9688 30.0428 15.0834 29.9907C15.1993 29.9386 15.3275 29.9126 15.4681 29.9126C15.7051 29.9126 15.89 29.9816 16.0228 30.1196C16.1569 30.2576 16.224 30.464 16.224 30.7388V32.1665Z" fill="white"/>
<path d="M18.2006 31.5942V31.1372C18.1055 31.145 18.0026 31.1561 17.892 31.1704C17.7813 31.1834 17.6973 31.1991 17.64 31.2173C17.5697 31.2394 17.5157 31.272 17.4779 31.3149C17.4414 31.3566 17.4232 31.4119 17.4232 31.481C17.4232 31.5265 17.4271 31.5636 17.4349 31.5923C17.4427 31.6209 17.4623 31.6483 17.4935 31.6743C17.5235 31.7004 17.5593 31.7199 17.601 31.7329C17.6426 31.7446 17.7077 31.7505 17.7963 31.7505C17.8666 31.7505 17.9375 31.7362 18.0092 31.7075C18.0821 31.6789 18.1459 31.6411 18.2006 31.5942ZM18.2006 31.9341C18.1628 31.9627 18.1159 31.9972 18.0599 32.0376C18.0039 32.078 17.9512 32.1099 17.9017 32.1333C17.8327 32.1646 17.7611 32.1873 17.6869 32.2017C17.6127 32.2173 17.5313 32.2251 17.4427 32.2251C17.2344 32.2251 17.0599 32.1606 16.9193 32.0317C16.7787 31.9028 16.7084 31.7381 16.7084 31.5376C16.7084 31.3774 16.7442 31.2466 16.8158 31.145C16.8874 31.0435 16.989 30.9634 17.1205 30.9048C17.2507 30.8462 17.4122 30.8045 17.6049 30.7798C17.7976 30.755 17.9974 30.7368 18.2045 30.7251V30.7134C18.2045 30.5923 18.155 30.509 18.056 30.4634C17.9571 30.4165 17.8112 30.3931 17.6185 30.3931C17.5026 30.3931 17.3789 30.4139 17.2474 30.4556C17.1159 30.4959 17.0215 30.5272 16.9642 30.5493H16.8998V30.02C16.974 30.0005 17.0944 29.9777 17.2611 29.9517C17.4291 29.9243 17.597 29.9106 17.765 29.9106C18.1648 29.9106 18.4532 29.9725 18.6302 30.0962C18.8086 30.2186 18.8978 30.4113 18.8978 30.6743V32.1665H18.2006V31.9341Z" fill="white"/>
<path d="M21.8334 31.0396C21.8334 31.2205 21.8054 31.3853 21.7494 31.5337C21.6947 31.6821 21.6224 31.8045 21.5326 31.9009C21.4388 32.0024 21.3327 32.0793 21.2142 32.1313C21.0957 32.1834 20.9688 32.2095 20.8334 32.2095C20.7084 32.2095 20.6023 32.1958 20.515 32.1685C20.4278 32.1424 20.3386 32.1053 20.2474 32.0571V32.9712H19.5443V29.9731H20.2474V30.2017C20.3555 30.1157 20.4655 30.0461 20.5775 29.9927C20.6908 29.9393 20.821 29.9126 20.9681 29.9126C21.2416 29.9126 21.4538 30.0129 21.6049 30.2134C21.7572 30.4139 21.8334 30.6893 21.8334 31.0396ZM21.1088 31.0532C21.1088 30.8397 21.0723 30.6847 20.9994 30.5884C20.9265 30.492 20.8112 30.4438 20.6537 30.4438C20.5873 30.4438 20.5189 30.4543 20.4486 30.4751C20.3783 30.4946 20.3112 30.5233 20.2474 30.561V31.6646C20.2943 31.6828 20.3444 31.6945 20.3978 31.6997C20.4512 31.7049 20.5039 31.7075 20.556 31.7075C20.7422 31.7075 20.8809 31.6535 20.972 31.5454C21.0632 31.436 21.1088 31.272 21.1088 31.0532Z" fill="white"/>
<path d="M23.7435 32.147C23.668 32.1665 23.5879 32.1815 23.5033 32.1919C23.4187 32.2036 23.3151 32.2095 23.1927 32.2095C22.9193 32.2095 22.7155 32.1541 22.5814 32.0435C22.4486 31.9328 22.3822 31.7433 22.3822 31.4751V30.4497H22.0931V29.9731H22.3822V29.3462H23.0853V29.9731H23.7435V30.4497H23.0853V31.2271C23.0853 31.3039 23.086 31.3709 23.0873 31.4282C23.0886 31.4855 23.099 31.5369 23.1185 31.5825C23.1368 31.6281 23.1687 31.6646 23.2142 31.6919C23.2611 31.7179 23.3288 31.731 23.4174 31.731C23.4538 31.731 23.5013 31.7231 23.5599 31.7075C23.6198 31.6919 23.6615 31.6776 23.6849 31.6646H23.7435V32.147Z" fill="white"/>
<path d="M26.3256 31.1997H24.7162C24.7266 31.3716 24.7917 31.5031 24.9115 31.5942C25.0326 31.6854 25.2103 31.731 25.4447 31.731C25.5931 31.731 25.737 31.7043 25.8763 31.6509C26.0157 31.5975 26.1257 31.5402 26.2064 31.479H26.2845V32.0435C26.1257 32.1073 25.976 32.1535 25.8353 32.1821C25.6947 32.2108 25.5391 32.2251 25.3685 32.2251C24.9284 32.2251 24.5912 32.1261 24.3568 31.9282C24.1224 31.7303 24.0052 31.4484 24.0052 31.0825C24.0052 30.7205 24.1159 30.4341 24.3373 30.2231C24.5599 30.0109 24.8646 29.9048 25.2513 29.9048C25.6081 29.9048 25.8763 29.9953 26.056 30.1763C26.2357 30.356 26.3256 30.6151 26.3256 30.9536V31.1997ZM25.6263 30.7876C25.6224 30.6405 25.586 30.5298 25.517 30.4556C25.448 30.3813 25.3405 30.3442 25.1947 30.3442C25.0593 30.3442 24.948 30.3794 24.8607 30.4497C24.7735 30.52 24.7247 30.6326 24.7142 30.7876H25.6263Z" fill="white"/>
<path d="M28.4115 30.6431H28.349C28.3191 30.6326 28.2709 30.6248 28.2045 30.6196C28.1381 30.6144 28.0827 30.6118 28.0385 30.6118C27.9382 30.6118 27.8497 30.6183 27.7728 30.6313C27.696 30.6444 27.6133 30.6665 27.5248 30.6978V32.1665H26.8217V29.9731H27.5248V30.2954C27.6797 30.1626 27.8145 30.0747 27.9291 30.0317C28.0437 29.9875 28.1491 29.9653 28.2455 29.9653C28.2702 29.9653 28.2982 29.966 28.3295 29.9673C28.3607 29.9686 28.3881 29.9705 28.4115 29.9731V30.6431Z" fill="white"/>
<path d="M27.943 27.5V24.7423C27.943 24.471 27.9373 24.2413 27.9283 24.0544C27.9182 23.8686 27.8888 23.7154 27.8392 23.5972C27.7895 23.4801 27.7128 23.3934 27.609 23.3399C27.5053 23.2853 27.3597 23.2583 27.1713 23.2583C27.0405 23.2583 26.9096 23.2876 26.7822 23.3432C26.6536 23.4018 26.5125 23.4835 26.3614 23.5882V27.5H24.6376V24.7423C24.6376 24.4743 24.632 24.2457 24.6207 24.0566C24.6083 23.8686 24.579 23.7154 24.5293 23.5972C24.4797 23.4801 24.403 23.3934 24.2992 23.3399C24.1954 23.2853 24.051 23.2583 23.8671 23.2583C23.7261 23.2583 23.5874 23.291 23.452 23.3563C23.3166 23.4227 23.1846 23.4997 23.0571 23.5882V27.5H21.3334V21.9871H23.0571V22.5952C23.338 22.3553 23.6043 22.1695 23.8536 22.0356C24.1029 21.9004 24.3827 21.8333 24.694 21.8333C25.0325 21.8333 25.3292 21.9139 25.5841 22.0742C25.8402 22.2349 26.0353 22.4735 26.1696 22.791C26.5013 22.4837 26.8137 22.2472 27.107 22.0817C27.4004 21.9162 27.6982 21.8333 27.9994 21.8333C28.2555 21.8333 28.4845 21.875 28.6875 21.9567C28.8918 22.0389 29.0632 22.1609 29.2042 22.3249C29.3587 22.5017 29.4739 22.7116 29.5506 22.9559C29.6284 23.1998 29.6667 23.5184 29.6667 23.9102V27.5H27.943" fill="white"/>
<path d="M18.844 27.5C18.3786 27.5 17.9523 27.4439 17.5662 27.3319C17.1801 27.2221 16.8445 27.0485 16.5606 26.8145C16.2791 26.5828 16.0597 26.2906 15.9022 25.938C15.7448 25.5854 15.6666 25.1702 15.6666 24.691C15.6666 24.177 15.7516 23.7398 15.9229 23.3788C16.093 23.0192 16.3239 22.7226 16.6158 22.4891C16.8963 22.2661 17.226 22.1003 17.6064 21.9943C17.9868 21.8878 18.3821 21.8333 18.7935 21.8333C19.1049 21.8333 19.4163 21.868 19.7278 21.9372C20.0391 22.0047 20.3517 22.1152 20.6666 22.265V23.7046H20.4402C20.3701 23.6409 20.284 23.5706 20.1816 23.4937C20.0794 23.4168 19.9679 23.3454 19.8473 23.2817C19.7208 23.214 19.576 23.158 19.4163 23.1115C19.2554 23.0653 19.0762 23.0423 18.8785 23.0423C18.4292 23.0423 18.0822 23.1906 17.8362 23.4893C17.5903 23.787 17.4674 24.1868 17.4674 24.691C17.4674 25.2295 17.5984 25.6315 17.8615 25.8951C18.1246 26.1588 18.4728 26.2928 18.9084 26.2928C19.129 26.2928 19.3233 26.2675 19.491 26.2203C19.6588 26.1741 19.8024 26.1159 19.9231 26.05C20.0403 25.983 20.1403 25.9149 20.2242 25.8424C20.3081 25.7721 20.3804 25.7073 20.4402 25.6513H20.6666V27.0848C20.5655 27.1265 20.4494 27.1738 20.3173 27.2286C20.1851 27.2814 20.0507 27.3253 19.9139 27.3616C19.7427 27.4066 19.583 27.4407 19.4336 27.4637C19.2853 27.4868 19.0877 27.5 18.844 27.5" fill="white"/>
<path d="M13.3333 25.9562V24.8431C13.053 24.8716 12.8272 24.8968 12.6549 24.9165C12.4815 24.9374 12.3113 24.978 12.1455 25.0382C12.0005 25.0889 11.8881 25.1656 11.8074 25.2698C11.7278 25.3718 11.6874 25.5099 11.6874 25.6799C11.6874 25.9309 11.755 26.102 11.8881 26.1963C12.0212 26.2895 12.2186 26.3355 12.4804 26.3355C12.6244 26.3355 12.7716 26.3026 12.9232 26.2369C13.0738 26.1711 13.2101 26.0757 13.3333 25.9562V25.9562ZM13.3333 26.7928C13.2199 26.8882 13.1174 26.9737 13.0279 27.0493C12.9374 27.1272 12.8163 27.2039 12.6647 27.2796C12.5164 27.352 12.3713 27.4079 12.2306 27.444C12.0899 27.4802 11.8936 27.5 11.6405 27.5C11.1693 27.5 10.7777 27.341 10.4669 27.0219C10.1549 26.704 10 26.3026 10 25.8181C10 25.4178 10.0786 25.0977 10.2367 24.8519C10.3949 24.6063 10.6229 24.4122 10.9195 24.2685C11.2206 24.1227 11.5783 24.0207 11.9961 23.9626C12.4138 23.9056 12.8621 23.8606 13.3432 23.8289V23.8003C13.3432 23.5043 13.2341 23.3004 13.0181 23.1874C12.8011 23.0739 12.4771 23.0175 12.043 23.0175C11.8477 23.0175 11.6187 23.0537 11.3558 23.126C11.094 23.1984 10.8377 23.2905 10.5879 23.4023H10.4462V22.102C10.6108 22.0537 10.877 21.9978 11.2456 21.932C11.6132 21.8662 11.9841 21.8333 12.3582 21.8333C13.2788 21.8333 13.9496 21.9879 14.3696 22.296C14.7895 22.603 15 23.0734 15 23.705V27.3618H13.3333V26.7928" fill="white"/>
<path d="M59.452 33.5V18.1H64.974L68.032 31.52H68.428V18.1H71.288V33.5H65.766L62.708 20.08H62.312V33.5H59.452ZM80.1303 33.808C78.8689 33.808 77.7836 33.5807 76.8743 33.126C75.9796 32.6567 75.2903 31.9967 74.8063 31.146C74.3369 30.2807 74.1023 29.2613 74.1023 28.088V18.1H77.0063V28.176C77.0063 29.1147 77.2703 29.8553 77.7983 30.398C78.3409 30.9407 79.1183 31.212 80.1303 31.212C81.1423 31.212 81.9123 30.9407 82.4403 30.398C82.9829 29.8553 83.2543 29.1147 83.2543 28.176V18.1H86.1583V28.088C86.1583 29.2613 85.9163 30.2807 85.4323 31.146C84.9629 31.9967 84.2736 32.6567 83.3643 33.126C82.4696 33.5807 81.3916 33.808 80.1303 33.808ZM93.2437 33.5L97.2917 18.1H102.352L106.4 33.5H103.408L102.572 30.112H97.0717L96.2357 33.5H93.2437ZM97.7537 27.428H101.89L100.02 19.926H99.6237L97.7537 27.428ZM113.966 33.808C112.059 33.808 110.549 33.28 109.434 32.224C108.319 31.1533 107.762 29.628 107.762 27.648V23.952C107.762 21.972 108.319 20.454 109.434 19.398C110.549 18.3273 112.059 17.792 113.966 17.792C115.858 17.792 117.317 18.3127 118.344 19.354C119.385 20.3807 119.906 21.796 119.906 23.6V23.732H117.046V23.512C117.046 22.6027 116.789 21.8547 116.276 21.268C115.777 20.6813 115.007 20.388 113.966 20.388C112.939 20.388 112.133 20.7033 111.546 21.334C110.959 21.9647 110.666 22.8227 110.666 23.908V27.692C110.666 28.7627 110.959 29.6207 111.546 30.266C112.133 30.8967 112.939 31.212 113.966 31.212C115.007 31.212 115.777 30.9187 116.276 30.332C116.789 29.7307 117.046 28.9827 117.046 28.088V27.692H119.906V28C119.906 29.804 119.385 31.2267 118.344 32.268C117.317 33.2947 115.858 33.808 113.966 33.808ZM122.272 33.5V18.1H127.662L130.324 31.52H130.72L133.382 18.1H138.772V33.5H135.956V20.234H135.56L132.92 33.5H128.124L125.484 20.234H125.088V33.5H122.272ZM152.605 33.808C151.417 33.808 150.368 33.5953 149.459 33.17C148.549 32.7447 147.838 32.136 147.325 31.344C146.811 30.552 146.555 29.5987 146.555 28.484V27.868H149.415V28.484C149.415 29.408 149.701 30.1047 150.273 30.574C150.845 31.0287 151.622 31.256 152.605 31.256C153.602 31.256 154.343 31.058 154.827 30.662C155.325 30.266 155.575 29.76 155.575 29.144C155.575 28.7187 155.45 28.374 155.201 28.11C154.966 27.846 154.614 27.6333 154.145 27.472C153.69 27.296 153.133 27.1347 152.473 26.988L151.967 26.878C150.911 26.6433 150.001 26.35 149.239 25.998C148.491 25.6313 147.911 25.1547 147.501 24.568C147.105 23.9813 146.907 23.2187 146.907 22.28C146.907 21.3413 147.127 20.542 147.567 19.882C148.021 19.2073 148.652 18.694 149.459 18.342C150.28 17.9753 151.241 17.792 152.341 17.792C153.441 17.792 154.416 17.9827 155.267 18.364C156.132 18.7307 156.807 19.288 157.291 20.036C157.789 20.7693 158.039 21.6933 158.039 22.808V23.468H155.179V22.808C155.179 22.2213 155.061 21.752 154.827 21.4C154.607 21.0333 154.284 20.7693 153.859 20.608C153.433 20.432 152.927 20.344 152.341 20.344C151.461 20.344 150.808 20.5127 150.383 20.85C149.972 21.1727 149.767 21.62 149.767 22.192C149.767 22.5733 149.862 22.896 150.053 23.16C150.258 23.424 150.559 23.644 150.955 23.82C151.351 23.996 151.857 24.15 152.473 24.282L152.979 24.392C154.079 24.6267 155.032 24.9273 155.839 25.294C156.66 25.6607 157.298 26.1447 157.753 26.746C158.207 27.3473 158.435 28.1173 158.435 29.056C158.435 29.9947 158.193 30.8233 157.709 31.542C157.239 32.246 156.565 32.8033 155.685 33.214C154.819 33.61 153.793 33.808 152.605 33.808ZM166.452 33.808C164.546 33.808 163.035 33.28 161.92 32.224C160.806 31.1533 160.248 29.628 160.248 27.648V23.952C160.248 21.972 160.806 20.454 161.92 19.398C163.035 18.3273 164.546 17.792 166.452 17.792C168.344 17.792 169.804 18.3127 170.83 19.354C171.872 20.3807 172.392 21.796 172.392 23.6V23.732H169.532V23.512C169.532 22.6027 169.276 21.8547 168.762 21.268C168.264 20.6813 167.494 20.388 166.452 20.388C165.426 20.388 164.619 20.7033 164.032 21.334C163.446 21.9647 163.152 22.8227 163.152 23.908V27.692C163.152 28.7627 163.446 29.6207 164.032 30.266C164.619 30.8967 165.426 31.212 166.452 31.212C167.494 31.212 168.264 30.9187 168.762 30.332C169.276 29.7307 169.532 28.9827 169.532 28.088V27.692H172.392V28C172.392 29.804 171.872 31.2267 170.83 32.268C169.804 33.2947 168.344 33.808 166.452 33.808Z" fill="black"/>
</svg>
